<svg width="342" height="90" viewBox="0 0 342 90" fill="none" xmlns="http://www.w3.org/2000/svg">
<path d="M3.96746 60.88V28.1527H23.591V31.6684H7.93053V42.7266H22.1209V46.2422H7.93053V60.88H3.96746ZM38.8417 28.1527V60.88H34.8786V28.1527H38.8417ZM77.2395 28.1527V60.88H73.4043L55.5704 35.184H55.2508V60.88H51.2878V28.1527H55.123L73.0207 53.9127H73.3403V28.1527H77.2395ZM115.621 28.1527V60.88H111.786L93.9523 35.184H93.6327V60.88H89.6696V28.1527H93.5048L111.403 53.9127H111.722V28.1527H115.621ZM230.989 60.88V28.1527H234.952V42.7266H252.402V28.1527H256.365V60.88H252.402V46.2422H234.952V60.88H230.989ZM272.763 28.1527V60.88H268.799V28.1527H272.763ZM285.209 60.88V28.1527H289.172V44.3885H289.555L304.257 28.1527H309.435L295.692 42.9184L309.435 60.88H304.64L293.263 45.6669L289.172 50.2692V60.88H285.209ZM319.064 60.88V28.1527H338.816V31.6684H323.027V42.7266H337.793V46.2422H323.027V57.3644H339.071V60.88H319.064Z" fill="white"/>
<g clip-path="url(#clip0_113_327)">
<path d="M171.5 7.5C191.52 7.5 207.75 24.2893 207.75 45C207.75 65.7105 191.52 82.5 171.5 82.5C151.48 82.5 135.25 65.7105 135.25 45C135.25 24.2893 151.48 7.5 171.5 7.5ZM186.88 29.09C185.598 27.7642 168.937 31.7417 163.81 37.045C158.684 42.3484 154.839 59.5841 156.121 60.9097C157.402 62.2357 174.064 58.2581 179.19 52.9549C184.317 47.6516 188.161 30.4159 186.88 29.09ZM171.5 41.25C173.502 41.25 175.125 42.9289 175.125 45C175.125 47.0711 173.502 48.75 171.5 48.75C169.498 48.75 167.875 47.0711 167.875 45C167.875 42.9289 169.498 41.25 171.5 41.25Z" fill="#1B59B2"/>
</g>
<defs>
<clipPath id="clip0_113_327">
<rect width="87" height="90" fill="white" transform="translate(128)"/>
</clipPath>
</defs>
</svg>
