<svg width="377" height="143" viewBox="0 0 377 143" fill="none" xmlns="http://www.w3.org/2000/svg">
<ellipse cx="188.5" cy="85" rx="55.5" ry="55" fill="white"/>
<path d="M133.32 72.12H244.32V92.12H133.32V72.12Z" fill="#003580"/>
<path d="M177.32 29.12V140.12L161.32 135.304V34.4959L177.32 29.12Z" fill="#003580"/>
<path d="M237.038 58.3135C241.39 66.2239 243.848 75.2863 243.848 84.9375C243.848 115.53 219.042 140.362 188.424 140.362C157.806 140.362 133 115.555 133 84.9375C133 54.3199 157.806 29.5135 188.424 29.5135C196.744 29.5135 204.629 31.3567 211.72 34.6335" stroke="black" stroke-width="4" stroke-linecap="round" stroke-linejoin="round"/>
<path d="M188.424 128.586C212.53 128.586 232.072 109.044 232.072 84.9375C232.072 60.8314 212.53 41.2895 188.424 41.2895C164.318 41.2895 144.776 60.8314 144.776 84.9375C144.776 109.044 164.318 128.586 188.424 128.586Z" stroke="black" stroke-width="4" stroke-linecap="round" stroke-linejoin="round"/>
<path d="M188.424 41.2895V54.1152" stroke="black" stroke-width="4" stroke-linecap="round" stroke-linejoin="round"/>
<path d="M188.424 115.76V128.586" stroke="black" stroke-width="4" stroke-linecap="round" stroke-linejoin="round"/>
<path d="M144.75 84.9375H157.602" stroke="black" stroke-width="4" stroke-linecap="round" stroke-linejoin="round"/>
<path d="M219.246 84.9375H232.072" stroke="black" stroke-width="4" stroke-linecap="round" stroke-linejoin="round"/>
<path d="M175.957 7.1648C175.957 0.2784 200.866 0.2784 200.866 7.1648C200.866 14.0512 195.285 19.632 188.398 19.632C181.512 19.632 175.931 14.0512 175.931 7.1648H175.957Z" stroke="black" stroke-width="4" stroke-linecap="round" stroke-linejoin="round"/>
<path d="M183.483 29.5135V19.632" stroke="black" stroke-width="4" stroke-linecap="round" stroke-linejoin="round"/>
<path d="M193.365 29.5135V19.632" stroke="black" stroke-width="4" stroke-linecap="round" stroke-linejoin="round"/>
<path d="M210.107 121.802L197 86.9856C197.154 86.32 197.256 85.6287 197.256 84.9375C197.256 80.8927 194.517 77.5135 190.805 76.4639L166.715 48.048L179.822 82.8639C179.669 83.5295 179.566 84.2208 179.566 84.912C179.566 88.9568 182.306 92.336 186.018 93.3856L210.107 121.802Z" fill="white" stroke="black" stroke-width="4" stroke-linecap="round" stroke-linejoin="round"/>
<path d="M4.31121 100V67.2727H23.9348V70.7884H8.27428V81.8466H22.4646V85.3622H8.27428V100H4.31121ZM39.1854 67.2727V100H35.2223V67.2727H39.1854ZM77.5832 67.2727V100H73.748L55.9142 74.304H55.5946V100H51.6315V67.2727H55.4668L73.3645 93.0327H73.6841V67.2727H77.5832ZM115.965 67.2727V100H112.13L94.296 74.304H93.9764V100H90.0134V67.2727H93.8486L111.746 93.0327H112.066V67.2727H115.965ZM265.645 100V67.2727H269.608V81.8466H287.059V67.2727H291.022V100H287.059V85.3622H269.608V100H265.645ZM307.419 67.2727V100H303.456V67.2727H307.419ZM319.865 100V67.2727H323.828V83.5085H324.212L338.913 67.2727H344.091L330.348 82.0384L344.091 100H339.297L327.919 84.7869L323.828 89.3892V100H319.865ZM353.72 100V67.2727H373.472V70.7884H357.683V81.8466H372.449V85.3622H357.683V96.4844H373.727V100H353.72Z" fill="black"/>
</svg>
