<svg width="50" height="50" viewBox="0 0 64 64" fill="none" xmlns="http://www.w3.org/2000/svg">
    <circle cx="32" cy="32" r="31" stroke="white" stroke-width="2"/>
    <path d="M33.9199 31.0523L37.531 27.4412L37.8831 27.7932L32.8173 32.8591L27.7514 27.7932L28.1035 27.4412L31.7147 31.0523L32.5682 31.9059L32.5682 30.6988L32.5682 20.2731L33.0663 20.2731L33.0663 30.6988L33.0663 31.9059L33.9199 31.0523Z"
          fill="#333333" stroke="#FAA914"/>
    <path d="M24.8705 38.7732V36.2732H25.8705V38.7732V39.2732H26.3705H39.3705H39.8705V38.7732V36.2732H40.8705V38.7732C40.8705 39.1894 40.7283 39.5335 40.4302 39.8324C40.1312 40.1309 39.7869 40.2732 39.3705 40.2732H26.3705C25.954 40.2732 25.6103 40.1309 25.312 39.8326C25.013 39.5336 24.8705 39.1894 24.8705 38.7732Z"
          fill="black" stroke="#FAA914"/>
</svg>
