<svg width="17" height="17" viewBox="0 0 17 17" fill="none" xmlns="http://www.w3.org/2000/svg">
    <path d="M5.16667 1.5777L16 1.57853M5.16667 8.50081L16 8.50173M5.16667 15.4239L16 15.4248M1.41667 1.57692H1.425M1.41667 8.5H1.425M1.41667 15.4231H1.425M1.83333 1.57692C1.83333 1.89555 1.64678 2.15385 1.41667 2.15385C1.18655 2.15385 1 1.89555 1 1.57692C1 1.2583 1.18655 1 1.41667 1C1.64678 1 1.83333 1.2583 1.83333 1.57692ZM1.83333 8.5C1.83333 8.81858 1.64678 9.07692 1.41667 9.07692C1.18655 9.07692 1 8.81858 1 8.5C1 8.18142 1.18655 7.92308 1.41667 7.92308C1.64678 7.92308 1.83333 8.18142 1.83333 8.5ZM1.83333 15.4231C1.83333 15.7417 1.64678 16 1.41667 16C1.18655 16 1 15.7417 1 15.4231C1 15.1045 1.18655 14.8462 1.41667 14.8462C1.64678 14.8462 1.83333 15.1045 1.83333 15.4231Z"
          stroke="black" stroke-width="1" stroke-linecap="round" stroke-linejoin="round"/>
</svg>
