<svg width="17" height="17" viewBox="0 0 17 17" fill="none" xmlns="http://www.w3.org/2000/svg">
    <path d="M1 5.84294C1 4.59302 1 3.96806 1.3272 3.60356C1.44337 3.47414 1.58456 3.37055 1.74191 3.2993C2.18511 3.0986 2.76758 3.29624 3.93251 3.69149C4.82188 3.99326 5.26657 4.14414 5.71592 4.12852C5.88095 4.12278 6.04501 4.10042 6.20571 4.06175C6.64326 3.95648 7.03325 3.69182 7.81333 3.16249L8.96525 2.38075C9.9645 1.70271 10.4641 1.36369 11.0376 1.28552C11.6111 1.20734 12.1807 1.40062 13.3199 1.78716L14.2906 2.11649C15.1156 2.39642 15.5281 2.53639 15.7641 2.8696C16 3.20282 16 3.64543 16 4.53063V11.4255C16 12.6754 16 13.3004 15.6728 13.6649C15.5567 13.7943 15.4154 13.8979 15.2581 13.9691C14.8149 14.1698 14.2324 13.9722 13.0675 13.5769C12.1781 13.2752 11.7334 13.1243 11.2841 13.1399C11.1191 13.1457 10.955 13.168 10.7943 13.2066C10.3567 13.3119 9.96675 13.5766 9.18667 14.106L8.03475 14.8876C7.0355 15.5657 6.53593 15.9047 5.96244 15.9829C5.38895 16.0611 4.81933 15.8678 3.68008 15.4812L2.70943 15.1519C1.88441 14.872 1.47189 14.732 1.23595 14.3988C1 14.0656 1 13.623 1 12.7377V5.84294Z"
          stroke="black" stroke-width="1"/>
    <path d="M6 4.08648V15.8443" stroke="black" stroke-width="1"/>
    <path d="M11 1V12.8754" stroke="black" stroke-width="1"/>
</svg>
