<svg width="12" height="18" viewBox="0 0 12 18" fill="none" xmlns="http://www.w3.org/2000/svg">
    <path d="M6 16.5712C5.85774 16.4038 5.6801 16.1913 5.47677 15.9408C4.93634 15.2749 4.21658 14.343 3.49781 13.2776C2.77809 12.2109 2.06553 11.0195 1.53442 9.83399C1.00038 8.64194 0.666664 7.49259 0.666664 6.5C0.666664 3.55115 3.05114 1.16667 6 1.16667C8.94885 1.16667 11.3333 3.55115 11.3333 6.5C11.3333 7.49259 10.9996 8.64194 10.4656 9.83399C9.93447 11.0195 9.22191 12.2109 8.50218 13.2776C7.78342 14.343 7.06366 15.2749 6.52323 15.9408C6.31989 16.1913 6.14225 16.4038 6 16.5712ZM3.41666 6.5C3.41666 7.92615 4.57385 9.08334 6 9.08334C7.42614 9.08334 8.58333 7.92615 8.58333 6.5C8.58333 5.07386 7.42614 3.91667 6 3.91667C4.57385 3.91667 3.41666 5.07386 3.41666 6.5Z"
          fill="#009e49"/>
</svg>
