<svg width="15" height="16" viewBox="0 0 19 20" fill="none" xmlns="http://www.w3.org/2000/svg">
    <path d="M10.1873 9.27188L8.81125 9.03438C8.81125 9.03438 8.74445 15.1203 8.80234 15.8422C8.80234 15.8438 9.1571 18.0422 9.24468 19.1344C9.25507 19.2703 9.36343 19.3766 9.49406 19.3766C9.62468 19.3766 9.73304 19.2719 9.74492 19.1344L10.1887 15.8422C10.1858 14.85 10.1873 9.27188 10.1873 9.27188Z"
          fill="#40ADC7"/>
    <path d="M5.30219 5.05625V5.27812C5.42836 7.47187 7.07008 9.26562 9.15414 9.46406C9.28031 9.48594 9.3857 9.48594 9.51187 9.48594C9.63805 9.48594 9.74344 9.48594 9.84883 9.46406C11.9329 9.26406 13.5731 7.51406 13.6993 5.27656V5.05469C13.7201 2.61875 11.826 0.625 9.51039 0.625C7.19476 0.625 5.30219 2.59688 5.30219 5.05625Z"
          fill="#F07F71"/>
</svg>
