<svg width="50" height="50" viewBox="0 0 64 64" fill="none" xmlns="http://www.w3.org/2000/svg">
    <circle cx="32" cy="32" r="31" stroke="white" stroke-width="2"/>
    <path d="M26.6859 27.5H29.1859V28.5H26.6859H26.1859V29V40V40.5H26.6859H38.6859H39.1859V40V29V28.5H38.6859H36.1859V27.5H38.6859C39.1023 27.5 39.4464 27.6423 39.7454 27.9406C40.0436 28.2395 40.1859 28.5837 40.1859 29V40C40.1859 40.4164 40.0436 40.7607 39.7451 41.0597C39.4463 41.3578 39.1022 41.5 38.6859 41.5H26.6859C26.2694 41.5 25.9257 41.3577 25.6275 41.0594C25.3284 40.7604 25.1859 40.4162 25.1859 40V29C25.1859 28.5838 25.3284 28.2396 25.6275 27.9406C25.9257 27.6423 26.2694 27.5 26.6859 27.5ZM31.3324 23.4714L30.0891 24.7148L29.3899 24.0031L32.6859 20.7071L35.9819 24.0031L35.2828 24.7148L34.0395 23.4714L33.1859 22.6179V23.825V34.5H32.1859V23.825V22.6179L31.3324 23.4714Z"
          stroke="#FAA914"/>
</svg>
